<?xml version="1.0" standalone="no"?>
<!DOCTYPE svg PUBLIC "-//W3C//DTD SVG 1.1//EN" "http://www.w3.org/Graphics/SVG/1.1/DTD/svg11.dtd">
<svg version="1.1" xmlns="http://www.w3.org/2000/svg" viewBox="0 0 301.8363954051863 230.08657731572197" width="603.6727908103726" height="460.17315463144394"><!-- svg-source:excalidraw --><metadata></metadata><defs><style class="style-fonts">
      </style></defs><g stroke-linecap="round" transform="translate(69.16648527702205 10) rotate(0 84.39453125 104.28125)"><path d="M168.79 104.28 C168.79 107.69, 168.65 111.11, 168.38 114.5 C168.11 117.89, 167.71 121.28, 167.17 124.63 C166.63 127.97, 165.96 131.29, 165.16 134.55 C164.35 137.81, 163.42 141.04, 162.36 144.19 C161.31 147.34, 160.12 150.43, 158.82 153.44 C157.52 156.44, 156.1 159.38, 154.57 162.22 C153.03 165.05, 151.38 167.8, 149.63 170.44 C147.88 173.07, 146.02 175.61, 144.07 178.02 C142.12 180.43, 140.07 182.73, 137.93 184.89 C135.8 187.05, 133.57 189.1, 131.28 190.99 C128.99 192.88, 126.61 194.64, 124.18 196.25 C121.75 197.86, 119.24 199.32, 116.69 200.62 C114.14 201.93, 111.53 203.08, 108.89 204.07 C106.25 205.06, 103.56 205.89, 100.86 206.56 C98.15 207.22, 95.41 207.73, 92.67 208.06 C89.92 208.39, 87.15 208.56, 84.39 208.56 C81.64 208.56, 78.87 208.39, 76.12 208.06 C73.38 207.73, 70.63 207.22, 67.93 206.56 C65.23 205.89, 62.53 205.06, 59.9 204.07 C57.26 203.08, 54.65 201.93, 52.1 200.62 C49.55 199.32, 47.04 197.86, 44.61 196.25 C42.18 194.64, 39.8 192.88, 37.51 190.99 C35.21 189.1, 32.99 187.05, 30.86 184.89 C28.72 182.73, 26.67 180.43, 24.72 178.02 C22.77 175.61, 20.91 173.07, 19.16 170.44 C17.41 167.8, 15.75 165.05, 14.22 162.22 C12.69 159.38, 11.27 156.44, 9.97 153.44 C8.67 150.43, 7.48 147.34, 6.42 144.19 C5.37 141.04, 4.43 137.81, 3.63 134.55 C2.83 131.29, 2.16 127.97, 1.62 124.63 C1.08 121.28, 0.68 117.89, 0.41 114.5 C0.14 111.11, 0 107.69, 0 104.28 C0 100.87, 0.14 97.45, 0.41 94.06 C0.68 90.67, 1.08 87.28, 1.62 83.94 C2.16 80.6, 2.83 77.27, 3.63 74.01 C4.43 70.75, 5.37 67.52, 6.42 64.37 C7.48 61.23, 8.67 58.13, 9.97 55.12 C11.27 52.12, 12.69 49.18, 14.22 46.35 C15.75 43.51, 17.41 40.76, 19.16 38.13 C20.91 35.49, 22.77 32.95, 24.72 30.54 C26.67 28.13, 28.72 25.83, 30.86 23.67 C32.99 21.51, 35.21 19.47, 37.51 17.57 C39.8 15.68, 42.18 13.92, 44.61 12.31 C47.04 10.71, 49.55 9.24, 52.1 7.94 C54.65 6.63, 57.26 5.48, 59.9 4.49 C62.53 3.5, 65.23 2.67, 67.93 2 C70.63 1.34, 73.38 0.84, 76.12 0.5 C78.87 0.17, 81.64 0, 84.39 0 C87.15 0, 89.92 0.17, 92.67 0.5 C95.41 0.84, 98.15 1.34, 100.86 2 C103.56 2.67, 106.25 3.5, 108.89 4.49 C111.53 5.48, 114.14 6.63, 116.69 7.94 C119.24 9.24, 121.75 10.71, 124.18 12.31 C126.61 13.92, 128.99 15.68, 131.28 17.57 C133.57 19.47, 135.8 21.51, 137.93 23.67 C140.07 25.83, 142.12 28.13, 144.07 30.54 C146.02 32.95, 147.88 35.49, 149.63 38.13 C151.38 40.76, 153.03 43.51, 154.57 46.35 C156.1 49.18, 157.52 52.12, 158.82 55.12 C160.12 58.13, 161.31 61.23, 162.36 64.37 C163.42 67.52, 164.35 70.75, 165.16 74.01 C165.96 77.27, 166.63 80.6, 167.17 83.94 C167.71 87.28, 168.11 90.67, 168.38 94.06 C168.65 97.45, 168.72 102.58, 168.79 104.28 C168.86 105.98, 168.86 102.58, 168.79 104.28" stroke="none" stroke-width="0" fill="#fbcb15"></path><path d="M168.79 104.28 C168.79 107.69, 168.65 111.11, 168.38 114.5 C168.11 117.89, 167.71 121.28, 167.17 124.63 C166.63 127.97, 165.96 131.29, 165.16 134.55 C164.35 137.81, 163.42 141.04, 162.36 144.19 C161.31 147.34, 160.12 150.43, 158.82 153.44 C157.52 156.44, 156.1 159.38, 154.57 162.22 C153.03 165.05, 151.38 167.8, 149.63 170.44 C147.88 173.07, 146.02 175.61, 144.07 178.02 C142.12 180.43, 140.07 182.73, 137.93 184.89 C135.8 187.05, 133.57 189.1, 131.28 190.99 C128.99 192.88, 126.61 194.64, 124.18 196.25 C121.75 197.86, 119.24 199.32, 116.69 200.62 C114.14 201.93, 111.53 203.08, 108.89 204.07 C106.25 205.06, 103.56 205.89, 100.86 206.56 C98.15 207.22, 95.41 207.73, 92.67 208.06 C89.92 208.39, 87.15 208.56, 84.39 208.56 C81.64 208.56, 78.87 208.39, 76.12 208.06 C73.38 207.73, 70.63 207.22, 67.93 206.56 C65.23 205.89, 62.53 205.06, 59.9 204.07 C57.26 203.08, 54.65 201.93, 52.1 200.62 C49.55 199.32, 47.04 197.86, 44.61 196.25 C42.18 194.64, 39.8 192.88, 37.51 190.99 C35.21 189.1, 32.99 187.05, 30.86 184.89 C28.72 182.73, 26.67 180.43, 24.72 178.02 C22.77 175.61, 20.91 173.07, 19.16 170.44 C17.41 167.8, 15.75 165.05, 14.22 162.22 C12.69 159.38, 11.27 156.44, 9.97 153.44 C8.67 150.43, 7.48 147.34, 6.42 144.19 C5.37 141.04, 4.43 137.81, 3.63 134.55 C2.83 131.29, 2.16 127.97, 1.62 124.63 C1.08 121.28, 0.68 117.89, 0.41 114.5 C0.14 111.11, 0 107.69, 0 104.28 C0 100.87, 0.14 97.45, 0.41 94.06 C0.68 90.67, 1.08 87.28, 1.62 83.94 C2.16 80.6, 2.83 77.27, 3.63 74.01 C4.43 70.75, 5.37 67.52, 6.42 64.37 C7.48 61.23, 8.67 58.13, 9.97 55.12 C11.27 52.12, 12.69 49.18, 14.22 46.35 C15.75 43.51, 17.41 40.76, 19.16 38.13 C20.91 35.49, 22.77 32.95, 24.72 30.54 C26.67 28.13, 28.72 25.83, 30.86 23.67 C32.99 21.51, 35.21 19.47, 37.51 17.57 C39.8 15.68, 42.18 13.92, 44.61 12.31 C47.04 10.71, 49.55 9.24, 52.1 7.94 C54.65 6.63, 57.26 5.48, 59.9 4.49 C62.53 3.5, 65.23 2.67, 67.93 2 C70.63 1.34, 73.38 0.84, 76.12 0.5 C78.87 0.17, 81.64 0, 84.39 0 C87.15 0, 89.92 0.17, 92.67 0.5 C95.41 0.84, 98.15 1.34, 100.86 2 C103.56 2.67, 106.25 3.5, 108.89 4.49 C111.53 5.48, 114.14 6.63, 116.69 7.94 C119.24 9.24, 121.75 10.71, 124.18 12.31 C126.61 13.92, 128.99 15.68, 131.28 17.57 C133.57 19.47, 135.8 21.51, 137.93 23.67 C140.07 25.83, 142.12 28.13, 144.07 30.54 C146.02 32.95, 147.88 35.49, 149.63 38.13 C151.38 40.76, 153.03 43.51, 154.57 46.35 C156.1 49.18, 157.52 52.12, 158.82 55.12 C160.12 58.13, 161.31 61.23, 162.36 64.37 C163.42 67.52, 164.35 70.75, 165.16 74.01 C165.96 77.27, 166.63 80.6, 167.17 83.94 C167.71 87.28, 168.11 90.67, 168.38 94.06 C168.65 97.45, 168.72 102.58, 168.79 104.28 C168.86 105.98, 168.86 102.58, 168.79 104.28" stroke="transparent" stroke-width="4" fill="none"></path></g><g stroke-linecap="round" transform="translate(3.8227352770220477 109.9375) rotate(325.94655838936103 73.375 51.1328125)"><path d="M146.75 51.13 C146.75 53.19, 146.57 55.26, 146.22 57.3 C145.86 59.34, 145.32 61.37, 144.62 63.37 C143.91 65.36, 143.03 67.34, 141.98 69.26 C140.94 71.19, 139.72 73.08, 138.35 74.9 C136.98 76.71, 135.44 78.49, 133.76 80.18 C132.09 81.87, 130.25 83.5, 128.3 85.04 C126.34 86.58, 124.24 88.04, 122.03 89.41 C119.82 90.77, 117.48 92.05, 115.06 93.21 C112.63 94.38, 110.08 95.45, 107.47 96.41 C104.86 97.36, 102.15 98.21, 99.39 98.94 C96.64 99.67, 93.8 100.29, 90.93 100.78 C88.07 101.27, 85.15 101.65, 82.22 101.89 C79.29 102.14, 76.32 102.27, 73.38 102.27 C70.43 102.27, 67.46 102.14, 64.53 101.89 C61.6 101.65, 58.68 101.27, 55.82 100.78 C52.95 100.29, 50.11 99.67, 47.36 98.94 C44.6 98.21, 41.89 97.36, 39.28 96.41 C36.67 95.45, 34.12 94.38, 31.69 93.21 C29.27 92.05, 26.93 90.77, 24.72 89.41 C22.51 88.04, 20.41 86.58, 18.45 85.04 C16.5 83.5, 14.66 81.87, 12.99 80.18 C11.31 78.49, 9.77 76.71, 8.4 74.9 C7.03 73.08, 5.81 71.19, 4.77 69.26 C3.72 67.34, 2.84 65.36, 2.13 63.37 C1.43 61.37, 0.89 59.34, 0.53 57.3 C0.18 55.26, 0 53.19, 0 51.13 C0 49.08, 0.18 47.01, 0.53 44.97 C0.89 42.93, 1.43 40.89, 2.13 38.9 C2.84 36.9, 3.72 34.92, 4.77 33 C5.81 31.08, 7.03 29.19, 8.4 27.37 C9.77 25.55, 11.31 23.78, 12.99 22.09 C14.66 20.4, 16.5 18.76, 18.45 17.23 C20.41 15.69, 22.51 14.22, 24.72 12.86 C26.93 11.5, 29.27 10.22, 31.69 9.05 C34.12 7.88, 36.67 6.81, 39.28 5.86 C41.89 4.9, 44.6 4.05, 47.36 3.32 C50.11 2.59, 52.95 1.98, 55.82 1.49 C58.68 0.99, 61.6 0.62, 64.53 0.37 C67.46 0.13, 70.43 0, 73.37 0 C76.32 0, 79.29 0.13, 82.22 0.37 C85.15 0.62, 88.07 0.99, 90.93 1.49 C93.8 1.98, 96.64 2.59, 99.39 3.32 C102.15 4.05, 104.86 4.9, 107.47 5.86 C110.08 6.81, 112.63 7.88, 115.06 9.05 C117.48 10.22, 119.82 11.5, 122.03 12.86 C124.24 14.22, 126.34 15.69, 128.3 17.23 C130.25 18.76, 132.09 20.4, 133.76 22.09 C135.44 23.78, 136.98 25.55, 138.35 27.37 C139.72 29.19, 140.94 31.08, 141.98 33 C143.03 34.92, 143.91 36.9, 144.62 38.9 C145.32 40.89, 145.86 42.93, 146.22 44.97 C146.57 47.01, 146.75 49.08, 146.75 51.13" stroke="none" stroke-width="0" fill="#fbcb15"></path><path d="M146.75 51.13 C146.75 53.19, 146.57 55.26, 146.22 57.3 C145.86 59.34, 145.32 61.37, 144.62 63.37 C143.91 65.36, 143.03 67.34, 141.98 69.26 C140.94 71.19, 139.72 73.08, 138.35 74.9 C136.98 76.71, 135.44 78.49, 133.76 80.18 C132.09 81.87, 130.25 83.5, 128.3 85.04 C126.34 86.58, 124.24 88.04, 122.03 89.41 C119.82 90.77, 117.48 92.05, 115.06 93.21 C112.63 94.38, 110.08 95.45, 107.47 96.41 C104.86 97.36, 102.15 98.21, 99.39 98.94 C96.64 99.67, 93.8 100.29, 90.93 100.78 C88.07 101.27, 85.15 101.65, 82.22 101.89 C79.29 102.14, 76.32 102.27, 73.38 102.27 C70.43 102.27, 67.46 102.14, 64.53 101.89 C61.6 101.65, 58.68 101.27, 55.82 100.78 C52.95 100.29, 50.11 99.67, 47.36 98.94 C44.6 98.21, 41.89 97.36, 39.28 96.41 C36.67 95.45, 34.12 94.38, 31.69 93.21 C29.27 92.05, 26.93 90.77, 24.72 89.41 C22.51 88.04, 20.41 86.58, 18.45 85.04 C16.5 83.5, 14.66 81.87, 12.99 80.18 C11.31 78.49, 9.77 76.71, 8.4 74.9 C7.03 73.08, 5.81 71.19, 4.77 69.26 C3.72 67.34, 2.84 65.36, 2.13 63.37 C1.43 61.37, 0.89 59.34, 0.53 57.3 C0.18 55.26, 0 53.19, 0 51.13 C0 49.08, 0.18 47.01, 0.53 44.97 C0.89 42.93, 1.43 40.89, 2.13 38.9 C2.84 36.9, 3.72 34.92, 4.77 33 C5.81 31.08, 7.03 29.19, 8.4 27.37 C9.77 25.55, 11.31 23.78, 12.99 22.09 C14.66 20.4, 16.5 18.76, 18.45 17.23 C20.41 15.69, 22.51 14.22, 24.72 12.86 C26.93 11.5, 29.27 10.22, 31.69 9.05 C34.12 7.88, 36.67 6.81, 39.28 5.86 C41.89 4.9, 44.6 4.05, 47.36 3.32 C50.11 2.59, 52.95 1.98, 55.82 1.49 C58.68 0.99, 61.6 0.62, 64.53 0.37 C67.46 0.13, 70.43 0, 73.37 0 C76.32 0, 79.29 0.13, 82.22 0.37 C85.15 0.62, 88.07 0.99, 90.93 1.49 C93.8 1.98, 96.64 2.59, 99.39 3.32 C102.15 4.05, 104.86 4.9, 107.47 5.86 C110.08 6.81, 112.63 7.88, 115.06 9.05 C117.48 10.22, 119.82 11.5, 122.03 12.86 C124.24 14.22, 126.34 15.69, 128.3 17.23 C130.25 18.76, 132.09 20.4, 133.76 22.09 C135.44 23.78, 136.98 25.55, 138.35 27.37 C139.72 29.19, 140.94 31.08, 141.98 33 C143.03 34.92, 143.91 36.9, 144.62 38.9 C145.32 40.89, 145.86 42.93, 146.22 44.97 C146.57 47.01, 146.75 49.08, 146.75 51.13" stroke="transparent" stroke-width="4" fill="none"></path></g><g stroke-linecap="round" transform="translate(151.49461027702205 107.40625) rotate(34.74108647754349 73.375 51.1328125)"><path d="M146.75 51.13 C146.75 53.19, 146.57 55.26, 146.22 57.3 C145.86 59.34, 145.32 61.37, 144.62 63.37 C143.91 65.36, 143.03 67.34, 141.98 69.26 C140.94 71.19, 139.72 73.08, 138.35 74.9 C136.98 76.71, 135.44 78.49, 133.76 80.18 C132.09 81.87, 130.25 83.5, 128.3 85.04 C126.34 86.58, 124.24 88.04, 122.03 89.41 C119.82 90.77, 117.48 92.05, 115.06 93.21 C112.63 94.38, 110.08 95.45, 107.47 96.41 C104.86 97.36, 102.15 98.21, 99.39 98.94 C96.64 99.67, 93.8 100.29, 90.93 100.78 C88.07 101.27, 85.15 101.65, 82.22 101.89 C79.29 102.14, 76.32 102.27, 73.38 102.27 C70.43 102.27, 67.46 102.14, 64.53 101.89 C61.6 101.65, 58.68 101.27, 55.82 100.78 C52.95 100.29, 50.11 99.67, 47.36 98.94 C44.6 98.21, 41.89 97.36, 39.28 96.41 C36.67 95.45, 34.12 94.38, 31.69 93.21 C29.27 92.05, 26.93 90.77, 24.72 89.41 C22.51 88.04, 20.41 86.58, 18.45 85.04 C16.5 83.5, 14.66 81.87, 12.99 80.18 C11.31 78.49, 9.77 76.71, 8.4 74.9 C7.03 73.08, 5.81 71.19, 4.77 69.26 C3.72 67.34, 2.84 65.36, 2.13 63.37 C1.43 61.37, 0.89 59.34, 0.53 57.3 C0.18 55.26, 0 53.19, 0 51.13 C0 49.08, 0.18 47.01, 0.53 44.97 C0.89 42.93, 1.43 40.89, 2.13 38.9 C2.84 36.9, 3.72 34.92, 4.77 33 C5.81 31.08, 7.03 29.19, 8.4 27.37 C9.77 25.55, 11.31 23.78, 12.99 22.09 C14.66 20.4, 16.5 18.76, 18.45 17.23 C20.41 15.69, 22.51 14.22, 24.72 12.86 C26.93 11.5, 29.27 10.22, 31.69 9.05 C34.12 7.88, 36.67 6.81, 39.28 5.86 C41.89 4.9, 44.6 4.05, 47.36 3.32 C50.11 2.59, 52.95 1.98, 55.82 1.49 C58.68 0.99, 61.6 0.62, 64.53 0.37 C67.46 0.13, 70.43 0, 73.37 0 C76.32 0, 79.29 0.13, 82.22 0.37 C85.15 0.62, 88.07 0.99, 90.93 1.49 C93.8 1.98, 96.64 2.59, 99.39 3.32 C102.15 4.05, 104.86 4.9, 107.47 5.86 C110.08 6.81, 112.63 7.88, 115.06 9.05 C117.48 10.22, 119.82 11.5, 122.03 12.86 C124.24 14.22, 126.34 15.69, 128.3 17.23 C130.25 18.76, 132.09 20.4, 133.76 22.09 C135.44 23.78, 136.98 25.55, 138.35 27.37 C139.72 29.19, 140.94 31.08, 141.98 33 C143.03 34.92, 143.91 36.9, 144.62 38.9 C145.32 40.89, 145.86 42.93, 146.22 44.97 C146.57 47.01, 146.75 49.08, 146.75 51.13" stroke="none" stroke-width="0" fill="#fbcb15"></path><path d="M146.75 51.13 C146.75 53.19, 146.57 55.26, 146.22 57.3 C145.86 59.34, 145.32 61.37, 144.62 63.37 C143.91 65.36, 143.03 67.34, 141.98 69.26 C140.94 71.19, 139.72 73.08, 138.35 74.9 C136.98 76.71, 135.44 78.49, 133.76 80.18 C132.09 81.87, 130.25 83.5, 128.3 85.04 C126.34 86.58, 124.24 88.04, 122.03 89.41 C119.82 90.77, 117.48 92.05, 115.06 93.21 C112.63 94.38, 110.08 95.45, 107.47 96.41 C104.86 97.36, 102.15 98.21, 99.39 98.94 C96.64 99.67, 93.8 100.29, 90.93 100.78 C88.07 101.27, 85.15 101.65, 82.22 101.89 C79.29 102.14, 76.32 102.27, 73.38 102.27 C70.43 102.27, 67.46 102.14, 64.53 101.89 C61.6 101.65, 58.68 101.27, 55.82 100.78 C52.95 100.29, 50.11 99.67, 47.36 98.94 C44.6 98.21, 41.89 97.36, 39.28 96.41 C36.67 95.45, 34.12 94.38, 31.69 93.21 C29.27 92.05, 26.93 90.77, 24.72 89.41 C22.51 88.04, 20.41 86.58, 18.45 85.04 C16.5 83.5, 14.66 81.87, 12.99 80.18 C11.31 78.49, 9.77 76.71, 8.4 74.9 C7.03 73.08, 5.81 71.19, 4.77 69.26 C3.72 67.34, 2.84 65.36, 2.13 63.37 C1.43 61.37, 0.89 59.34, 0.53 57.3 C0.18 55.26, 0 53.19, 0 51.13 C0 49.08, 0.18 47.01, 0.53 44.97 C0.89 42.93, 1.43 40.89, 2.13 38.9 C2.84 36.9, 3.72 34.92, 4.77 33 C5.81 31.08, 7.03 29.19, 8.4 27.37 C9.77 25.55, 11.31 23.78, 12.99 22.09 C14.66 20.4, 16.5 18.76, 18.45 17.23 C20.41 15.69, 22.51 14.22, 24.72 12.86 C26.93 11.5, 29.27 10.22, 31.69 9.05 C34.12 7.88, 36.67 6.81, 39.28 5.86 C41.89 4.9, 44.6 4.05, 47.36 3.32 C50.11 2.59, 52.95 1.98, 55.82 1.49 C58.68 0.99, 61.6 0.62, 64.53 0.37 C67.46 0.13, 70.43 0, 73.37 0 C76.32 0, 79.29 0.13, 82.22 0.37 C85.15 0.62, 88.07 0.99, 90.93 1.49 C93.8 1.98, 96.64 2.59, 99.39 3.32 C102.15 4.05, 104.86 4.9, 107.47 5.86 C110.08 6.81, 112.63 7.88, 115.06 9.05 C117.48 10.22, 119.82 11.5, 122.03 12.86 C124.24 14.22, 126.34 15.69, 128.3 17.23 C130.25 18.76, 132.09 20.4, 133.76 22.09 C135.44 23.78, 136.98 25.55, 138.35 27.37 C139.72 29.19, 140.94 31.08, 141.98 33 C143.03 34.92, 143.91 36.9, 144.62 38.9 C145.32 40.89, 145.86 42.93, 146.22 44.97 C146.57 47.01, 146.75 49.08, 146.75 51.13" stroke="transparent" stroke-width="4" fill="none"></path></g></svg>